# xmcd CD database file
#
# Track frame offsets:
#	150
#	19413
#	45159
#	65476
#	104482
#	134859
#	154218
#	172163
#	202314
#	224319
#	234663
#	270131
#
# Disc length: 3836 seconds
#
# Revision: 0
# Processed by: cddbd v1.5.2PL0 Copyright (c) Steve Scherf et al.
# Submitted via: CDex 1.51
#
DISCID=b70efa0c
DTITLE=Various Artist - Norwegian Jazz Launch 2011
DYEAR=2011
DGENRE=Jazz
TTITLE0=Karl Seglem - Gammal Roersle (Old Movement)
TTITLE1=Karl Seglem - Lull
TTITLE2=Karl Seglem - Laust Aust (loose loose)
TTITLE3=Mari Kvien Brunvoll - Everywhere You Go
TTITLE4=Mari Kvien Brunvoll - Wake Up
TTITLE5=Mari Kvien Brunvoll - Oh How Much That I
TTITLE6=Froy Aagre  - Steam Train
TTITLE7=Froy Aagre  - Words On An Envelope
TTITLE8=Froy Aagre  - Atoms
TTITLE9=Stian Westerhus - Don't Tell Me This Is home
TTITLE10=Stian Westerhus - Thy Gospel
TTITLE11=Stian Westerhus - Sing With Me Somehow
EXTD=YEAR: 2011
EXTT0=
EXTT1=
EXTT2=
EXTT3=
EXTT4=
EXTT5=
EXTT6=
EXTT7=
EXTT8=
EXTT9=
EXTT10=
EXTT11=
PLAYORDER=
